<svg viewBox='0 0 128 128' xmlns='http://www.w3.org/2000/svg'>

	<!--Orange circle-->
	<circle cx='66' cy='66' r='50' fill='hsl(36,100%,54%)'/>

	<!--O-ring-->
	<g fill='none' stroke-width='2' stroke='black'>

		<circle cx='66' cy='66' r='51' stroke-width='18' stroke='hsl(0,0%,75%)'/>
		<circle cx='66' cy='66' r='60'/>
		<circle cx='66' cy='66' r='42'/>

		<circle cx='62' cy='62' r='51' stroke-width='18' stroke='white'/>
		<circle cx='62' cy='62' r='60'/>
		<circle cx='62' cy='62' r='42'/>

		<!--Decorations-->
		<g stroke-linejoin='round'>
			<!--Red triangle-->
			<path d='M62 6.2l-5.2 9h10.4L62 6z' fill='hsl(-9,90%,54%)'/>
			<!--Blue diamond-->
			<path d='M62 108l-5 5l5 5l5 -5l-5 -5z' fill='hsl(-140,100%,54%)'/>
		</g>

	</g>

	<!--FTC-->
	<path d='m200 310l0 -9.1l8 -1.6l0 -54.4l-8 -1.6l0 -9.2l60.4 0l0 20.8l-11.7 0l-0.7 -9l-24.7 0l0 20.9l26.5 0l0 11.7l-26.5 0l0 20.8l8.1 1.6l0 9.1l-31.4 0zm84.4 0l0 -9.1l8.1 -1.6l0 -53.4l-13.8 0l-0.8 9l-11.5 0l0 -20.8l67.7 0l0 20.8l-11.6 0l-0.8 -9l-13.9 0l0 53.4l8.2 1.6l0 9.1l-31.5 0zm89.5 1q-11 0 -19.2 -4.6q-8.2 -4.6 -12.6 -13q-4.5 -8.5 -4.5 -20l0 -2.5q0 -11 4.3 -19.6q4.3 -8.5 12.3 -13.4q8 -4.8 19 -4.8q7.7 0 14.5 2.2q6.8 2.2 12 6.7l0 18.3l-11.3 0l-1.6 -11.5q-1.7 -1.3 -3.8 -2.1q-2 -0.9 -4.4 -1.4q-2.4 -0.5 -5.1 -0.5q-6.5 0 -11.1 3.2q-4.6 3.2 -7 9q-2.5 5.8 -2.5 13.8l0 2.7q0 8 2.6 13.8q2.6 5.8 7.4 9q4.8 3.2 11.4 3.2q3.3 0 6.6 -0.8q3.3 -0.8 6 -2l1.6 -10.7l11.3 0l0 18.1q-4.4 2.9 -11 4.9q-6.6 2 -14.7 2z' fill='white' transform='scale(0.18)'/>

	<!--Lib-->
	<path d="m180 450l0 -17l15.1 -2.9l0 -102l-15.1 -2.9l0 -17.2l15.1 0l28.5 0l17.2 0l0 17.2l-17.2 2.9l0 100.2l40.1 0l1.4 -20.8l21.8 0l0 42.7l-106.9 0zm117 0l0 -17l13.8 -2.9l0 -65.5l-15.2 -2.9l0 -17.2l43.8 0l0 85.7l13.7 2.9l0 17l-56 0zm12.6 -128l0 -24.3l29.5 0l0 24.3l-29.5 0zm114.6 130q-9.8 0 -16.7 -3.9q-6.9 -3.9 -11.6 -11.2l-2 13l-24.6 0l0 -132.2l-15.1 -2.9l0 -17.2l43.6 0l0 57.9q4.6 -6.3 11.3 -9.8q6.7 -3.4 15.6 -3.4q12.8 0 21.7 6.9q8.9 6.9 13.6 19.4q4.7 12.5 4.7 29.4l0 2q0 15.7 -4.7 27.4q-4.7 11.7 -13.7 18.1q-9 6.4 -22 6.4zm-8.6 -22.2q10.9 0 15.7 -7.8q4.8 -7.8 4.8 -22l0 -2q0 -10.4 -2.1 -17.8q-2 -7.5 -6.5 -11.6q-4.4 -4.1 -11.6 -4.1q-6.5 0 -11 3q-4.6 3 -7.2 8.2l0 44.1q2.9 4.9 7.5 7.4q4.5 2.5 10.5 2.5z" fill-rule="nonzero" transform='scale(0.2)'/>

</svg>
